<svg width="88" height="68" viewBox="0 0 88 68" fill="none" xmlns="http://www.w3.org/2000/svg">
<g opacity="0.3">
<path d="M80.1418 51.0428L75.5101 45.7034C78.8485 41.5271 80.6674 36.3637 80.6674 30.9662C80.6674 17.9351 70.0658 7.33344 57.0345 7.33344C44.0033 7.33344 33.4017 17.9351 33.4017 30.9662C33.4017 31.8372 33.4506 32.6969 33.5428 33.5437C32.6886 33.4507 31.8285 33.4011 30.9668 33.4011C17.9357 33.4011 7.33402 44.0028 7.33402 57.034C7.33402 62.4314 9.15289 67.5947 12.4913 71.7711L7.85953 77.1105C7.30824 77.7462 7.17862 78.645 7.52795 79.4104C7.87729 80.1756 8.64113 80.6668 9.48246 80.6668H30.9668C43.998 80.6668 54.5996 70.0651 54.5996 57.034C54.5996 56.1723 54.5501 55.3122 54.4571 54.458C55.3039 54.5502 56.1636 54.5991 57.0345 54.5991H78.5189C79.3602 54.5991 80.1242 54.1079 80.4734 53.3427C80.8228 52.5772 80.6931 51.6785 80.1418 51.0428ZM30.9668 76.3699H14.1903L16.9582 73.1792C17.6812 72.3457 17.6553 71.0999 16.8981 70.2973C13.5016 66.6958 11.6309 61.9854 11.6309 57.034C11.6309 46.3721 20.305 37.698 30.9668 37.698C32.1462 37.698 33.3218 37.8054 34.4761 38.0171C36.7847 45.3876 42.6132 51.2161 49.9837 53.5247C50.1954 54.679 50.3028 55.8546 50.3028 57.034C50.3028 67.6959 41.6288 76.3699 30.9668 76.3699ZM57.0345 50.3022C46.3727 50.3022 37.6986 41.6281 37.6986 30.9662C37.6986 20.3044 46.3727 11.6303 57.0345 11.6303C67.6964 11.6303 76.3705 20.3044 76.3705 30.9662C76.3705 35.9177 74.4998 40.6281 71.1032 44.2296C70.3461 45.0322 70.3202 46.278 71.0432 47.1115L73.8111 50.3022H57.0345Z" fill="#515B6F" stroke="#515B6F" stroke-width="2"/>
<path d="M57.0352 45.5754C58.2217 45.5754 59.1836 44.6136 59.1836 43.427C59.1836 42.2405 58.2217 41.2786 57.0352 41.2786C55.8486 41.2786 54.8867 42.2405 54.8867 43.427C54.8867 44.6136 55.8486 45.5754 57.0352 45.5754Z" fill="#26A4FF" stroke="#26A4FF" stroke-width="0.668098"/>
<path d="M57.2044 16.2156C53.0351 16.1301 49.4485 19.1813 48.8723 23.3096C48.8196 23.6871 48.793 24.0728 48.793 24.4564C48.793 25.6429 49.7549 26.6048 50.9414 26.6048C52.1279 26.6048 53.0898 25.6429 53.0898 24.4564C53.0898 24.2708 53.1026 24.0846 53.1279 23.9034C53.3997 21.956 55.0727 20.5107 57.0371 20.5107C57.064 20.5107 57.0908 20.511 57.1179 20.5116C59.1745 20.553 60.8691 22.1922 60.9755 24.2436C61.0323 25.3391 60.6492 26.379 59.8967 27.1716C59.1434 27.9649 58.1272 28.4019 57.0354 28.4019C55.8489 28.4019 54.8869 29.3639 54.8869 30.5504V36.9228C54.8869 38.1093 55.8489 39.0712 57.0354 39.0712C58.2219 39.0712 59.1838 38.1093 59.1838 36.9228V32.4111C60.6322 32.0177 61.9659 31.2327 63.0126 30.1301C64.5847 28.4744 65.3851 26.3048 65.2665 24.0208C65.0439 19.7307 61.5026 16.3022 57.2044 16.2156Z" fill="#26A4FF" stroke="#26A4FF" stroke-width="0.668098"/>
<path d="M38.1276 50.5883H23.8047C22.6182 50.5883 21.6562 51.5502 21.6562 52.7367C21.6562 53.9232 22.6182 54.8851 23.8047 54.8851H38.1276C39.3141 54.8851 40.276 53.9232 40.276 52.7367C40.276 51.5502 39.3141 50.5883 38.1276 50.5883Z" fill="#26A4FF" stroke="#26A4FF" stroke-width="0.668098"/>
<path d="M38.1276 59.1822H23.8047C22.6182 59.1822 21.6562 60.1441 21.6562 61.3306C21.6562 62.5171 22.6182 63.4791 23.8047 63.4791H38.1276C39.3141 63.4791 40.276 62.5171 40.276 61.3306C40.276 60.1441 39.3141 59.1822 38.1276 59.1822Z" fill="#26A4FF" stroke="#26A4FF" stroke-width="0.668098"/>
</g>
</svg>
